<svg width="168" height="120" viewBox="0 0 168 120" fill="none" xmlns="http://www.w3.org/2000/svg">
<g filter="url(#filter0_i)">
<path d="M35.3299 79.8314C34.5073 81.0607 34.8078 82.744 36.0015 83.5911C37.1953 84.4382 38.83 84.1287 39.6526 82.8995C39.67 82.8738 39.6867 82.8474 39.7031 82.8211C48.8276 68.5993 64.2761 60.0445 80.829 60.0472C82.2787 60.0472 83.454 58.8369 83.454 57.3441C83.454 55.8513 82.2787 54.641 80.829 54.641C62.5167 54.6363 45.4253 64.0989 35.3299 79.8314Z" fill="#FCA8A8"/>
<path d="M165.375 114.11H149.625V110.844C149.686 93.3318 142.751 76.5643 130.447 64.4749C129.427 63.4133 127.765 63.4038 126.734 64.4533C125.703 65.5031 125.694 67.2145 126.713 68.2762C126.744 68.3083 126.776 68.3397 126.808 68.3701C138.078 79.4445 144.43 94.8033 144.375 110.844V114.11H23.625V110.844C23.6598 78.3261 49.2506 51.9737 80.829 51.9378H87.171C92.0473 51.9345 96.9038 52.5704 101.624 53.83C103.013 54.2581 104.476 53.4458 104.892 52.0156C105.307 50.5853 104.519 49.0789 103.13 48.6508C103.066 48.6312 103.001 48.614 102.936 48.5995C99.311 47.6365 95.6087 47.0114 91.8747 46.7316V38.4222C91.8747 36.9294 90.6993 35.7191 89.2497 35.7191H78.7497C77.3 35.7191 76.1247 36.9294 76.1247 38.4222V46.7316C43.5724 49.2989 18.4177 77.2249 18.3747 110.844V114.11H2.625C1.17534 114.11 0 115.32 0 116.813C0 118.306 1.17534 119.516 2.625 119.516H165.375C166.825 119.516 168 118.306 168 116.813C168 115.32 166.825 114.11 165.375 114.11ZM81.375 41.1253H86.625V46.5316H81.375V41.1253Z" fill="#FCA8A8"/>
<path d="M111.127 33.6728C113.571 35.9191 115.5 37.6924 115.5 41.3119C115.5 44.9313 113.571 46.7046 111.127 48.9644C107.412 51.6378 105.14 55.9608 105 60.6257C105 62.1185 106.175 63.3288 107.625 63.3288C109.075 63.3288 110.25 62.1185 110.25 60.6257C110.25 57.0062 112.179 55.233 114.623 52.9867C118.341 50.3092 120.612 45.9812 120.75 41.3119C120.612 36.6432 118.341 32.3162 114.623 29.6398C112.179 27.3935 110.25 25.6202 110.25 22.0034C110.25 18.3867 112.179 16.6161 114.623 14.3698C118.341 11.6961 120.612 7.37041 120.75 2.70312C120.75 1.21032 119.575 0 118.125 0C116.675 0 115.5 1.21032 115.5 2.70312C115.5 6.3172 113.571 8.08775 111.127 10.334C107.409 13.0088 105.137 17.3355 105 22.0034C105.138 26.6711 107.41 30.9974 111.127 33.6728Z" fill="#FCA8A8"/>
<path d="M126.877 33.6728C129.321 35.9191 131.25 37.6924 131.25 41.3119C131.25 44.9313 129.321 46.7181 126.877 48.9536C123.159 51.6294 120.887 55.9567 120.75 60.6257C120.75 62.1185 121.925 63.3288 123.375 63.3288C124.825 63.3288 126 62.1185 126 60.6257C126 57.0062 127.929 55.233 130.373 52.9867C134.091 50.3092 136.362 45.9812 136.5 41.3119C136.362 36.6432 134.091 32.3162 130.373 29.6398C127.929 27.3935 126 25.6202 126 22.0034C126 18.3867 127.929 16.6161 130.373 14.3698C134.091 11.6961 136.362 7.37041 136.5 2.70312C136.5 1.21032 135.325 0 133.875 0C132.425 0 131.25 1.21032 131.25 2.70312C131.25 6.3172 129.321 8.08775 126.877 10.334C123.159 13.0088 120.887 17.3355 120.75 22.0034C120.888 26.6711 123.16 30.9974 126.877 33.6728Z" fill="#FCA8A8"/>
<path d="M142.627 33.6728C145.071 35.9191 147 37.6924 147 41.3119C147 44.9313 145.071 46.7181 142.627 48.9536C138.909 51.6294 136.637 55.9567 136.5 60.6257C136.5 62.1185 137.675 63.3288 139.125 63.3288C140.575 63.3288 141.75 62.1185 141.75 60.6257C141.75 57.0062 143.679 55.233 146.123 52.9867C149.841 50.3092 152.112 45.9812 152.25 41.3119C152.112 36.6432 149.841 32.3162 146.123 29.6398C143.679 27.3935 141.75 25.6202 141.75 22.0034C141.75 18.3867 143.679 16.6161 146.123 14.3698C149.841 11.6961 152.112 7.37041 152.25 2.70312C152.25 1.21032 151.075 0 149.625 0C148.175 0 147 1.21032 147 2.70312C147 6.3172 145.071 8.08775 142.627 10.334C138.909 13.0088 136.637 17.3355 136.5 22.0034C136.638 26.6711 138.91 30.9974 142.627 33.6728Z" fill="#FCA8A8"/>
</g>
<defs>
<filter id="filter0_i" x="0" y="0" width="168" height="119.516" filterUnits="userSpaceOnUse" color-interpolation-filters="sRGB">
<feFlood flood-opacity="0" result="BackgroundImageFix"/>
<feBlend mode="normal" in="SourceGraphic" in2="BackgroundImageFix" result="shape"/>
<feColorMatrix in="SourceAlpha" type="matrix" values="0 0 0 0 0 0 0 0 0 0 0 0 0 0 0 0 0 0 127 0" result="hardAlpha"/>
<feOffset/>
<feGaussianBlur stdDeviation="1.5"/>
<feComposite in2="hardAlpha" operator="arithmetic" k2="-1" k3="1"/>
<feColorMatrix type="matrix" values="0 0 0 0 0 0 0 0 0 0 0 0 0 0 0 0 0 0 0.25 0"/>
<feBlend mode="normal" in2="shape" result="effect1_innerShadow"/>
</filter>
</defs>
</svg>
